<svg width="32" height="32" viewBox="0 0 32 32" fill="none" xmlns="http://www.w3.org/2000/svg">
  <path d="M0 0H24C28.4183 0 32 3.58172 32 8V24C32 28.4183 28.4183 32 24 32H8C3.58172 32 0 28.4183 0 24V0Z" fill="#38025C" />
  <path d="M24.3075 19.577C26.3467 19.577 27.9998 17.9239 27.9998 15.8847C27.9998 13.8455 26.3467 12.1924 24.3075 12.1924C22.2683 12.1924 20.6152 13.8455 20.6152 15.8847C20.6152 17.9239 22.2683 19.577 24.3075 19.577Z" fill="#FAFAFA" />
  <path d="M20.6167 23.2692C21.6369 23.2692 22.4639 22.4427 22.4639 21.4231C22.4639 20.4035 21.6369 19.5769 20.6167 19.5769C19.5965 19.5769 18.7695 20.4035 18.7695 21.4231C18.7695 22.4427 19.5965 23.2692 20.6167 23.2692Z" fill="#FAFAFA" />
  <path d="M11.3746 23.2684H9.55104C9.53652 23.2684 9.52199 23.2684 9.50661 23.2684C8.48886 23.2684 7.66424 22.4442 7.66424 21.427C7.66424 20.4098 8.48886 19.5857 9.50661 19.5857C9.52199 19.5857 9.53652 19.5857 9.55104 19.5857H11.3934V19.5763C12.1018 19.5754 12.7632 19.3756 13.3255 19.0288C14.2057 18.4959 14.7321 17.717 14.9491 16.874C15.0363 16.5589 15.0833 16.2267 15.0833 15.8833C15.0833 14.8747 14.6782 13.9608 14.0228 13.2947C13.452 12.6926 12.6615 12.2766 11.6908 12.2032C11.678 12.2023 11.666 12.2015 11.6532 12.2006C11.6498 12.2006 11.6464 12.2006 11.6438 12.2006C11.5592 12.1947 11.4737 12.1921 11.3883 12.1921C9.59975 12.1921 8.10688 13.4629 7.76678 15.1505C7.75653 15.1864 7.74713 15.2377 7.73943 15.3034C7.70953 15.493 7.69329 15.6869 7.69329 15.885C7.69329 15.9414 7.695 15.9969 7.69756 16.0524C7.66765 17.2456 7.71038 19.1766 7.69414 19.5771H4V8.5H11.3891C16.2626 8.66088 18.7688 12.2727 18.7692 15.8846C18.7697 19.5016 16.2574 23.1188 11.3746 23.2692V23.2684Z" fill="#FAFAFA" />
</svg>